<svg xmlns="http://www.w3.org/2000/svg" xmlns:xlink="http://www.w3.org/1999/xlink"><symbol id="dzen" viewBox="0 0 20 20"><g fill="none">
<path d="M19.5586 9.55711C19.5604 9.55711 19.5617 9.55711 19.5634 9.55711C19.6852 9.55711 19.8014 9.50602 19.8839 9.41652C19.9677 9.3257 20.0092 9.20389 19.9983 9.08076C19.5599 4.25925 15.7429 0.440639 10.9212 0.00140703C10.7989 -0.00819844 10.6758 0.0315333 10.585 0.1158C10.4942 0.199629 10.4436 0.317951 10.4449 0.441512C10.5208 6.84924 11.3661 9.4676 19.5586 9.55711ZM19.5586 10.4426C11.3661 10.5321 10.5213 13.1504 10.4453 19.5581C10.444 19.6817 10.4946 19.8 10.5855 19.8839C10.6667 19.9585 10.7728 20 10.8819 20C10.895 20 10.9085 19.9996 10.9216 19.9983C15.7433 19.559 19.5604 15.7408 19.9983 10.9189C20.0092 10.7958 19.9681 10.674 19.8839 10.5831C19.7996 10.4923 19.6822 10.4474 19.5586 10.4426ZM9.04954 0.00359014C4.24316 0.455484 0.438304 4.27322 0.0021535 9.08163C-0.00876118 9.20476 0.032278 9.32658 0.116539 9.41739C0.199054 9.5069 0.315623 9.55754 0.436994 9.55754C0.43874 9.55754 0.440487 9.55754 0.442233 9.55754C8.60772 9.46367 9.45077 6.84662 9.52761 0.443259C9.52892 0.319697 9.47784 0.200939 9.38703 0.117109C9.29534 0.0332798 9.17266 -0.00776178 9.04954 0.00359014ZM0.441797 10.4421C0.306018 10.4268 0.199491 10.4915 0.116103 10.5823C0.0322781 10.6731 -0.00919773 10.7949 0.00171694 10.918C0.437867 15.7264 4.24316 19.5442 9.04954 19.9961C9.06308 19.9974 9.07705 19.9978 9.09058 19.9978C9.19973 19.9978 9.30538 19.9568 9.38659 19.8821C9.4774 19.7983 9.52848 19.6795 9.52717 19.556C9.45033 13.153 8.60772 10.536 0.441797 10.4421Z" fill="#F9FBFD"/>
</g></symbol><symbol id="icon-close" viewBox="0 0 20 20"><g fill="none"><path d="M.293 18.291a1 1 0 101.414 1.414L10 11.413l8.292 8.292a1 1 0 101.414-1.414l-8.292-8.292 8.292-8.292A1 1 0 1018.291.293L9.999 8.585 1.707.293A1 1 0 10.293 1.707L8.585 10 .293 18.291z"/></g></symbol><symbol id="ok" viewBox="0 0 12 20"><g fill="none">
<path d="M5.875 3.02543C7.07072 3.02543 8.04314 3.9842 8.04314 5.16312C8.04314 6.3385 7.07072 7.29726 5.875 7.29726C4.67928 7.29726 3.70687 6.3385 3.70687 5.16312C3.70687 3.9842 4.67928 3.02543 5.875 3.02543ZM5.875 10.3227C8.76345 10.3227 11.1117 8.00746 11.1117 5.16312C11.1117 2.31524 8.76345 0 5.875 0C2.98655 0 0.641942 2.31524 0.641942 5.16312C0.641942 8.00746 2.98655 10.3227 5.875 10.3227ZM7.99271 14.5342C9.05877 14.2927 10.0852 13.8772 11.0324 13.2913C11.7491 12.8474 11.9652 11.9135 11.515 11.2069C11.0612 10.4967 10.1176 10.2836 9.39732 10.7311C7.2544 12.0591 4.4956 12.0591 2.34908 10.7311C1.63237 10.2836 0.685162 10.4967 0.234968 11.2069C-0.215227 11.9135 0.000865602 12.8474 0.717575 13.2913C1.66478 13.8772 2.69123 14.2927 3.75729 14.5342L0.829223 17.4176C0.231365 18.007 0.231365 18.9658 0.829223 19.5552C1.13175 19.85 1.52072 19.9991 1.91329 19.9991C2.30586 19.9991 2.69843 19.85 3.00096 19.5552L5.875 16.7216L8.75264 19.5552C9.3505 20.1483 10.3193 20.1483 10.9208 19.5552C11.5186 18.9658 11.5186 18.007 10.9208 17.4176L7.99271 14.5342Z" fill="#F9FBFD"/>
</g></symbol><symbol id="reddit" viewBox="0 0 20 20"><g fill="none">
<path d="M11.9453 0C11.304 0 10.7021 0.325343 10.3161 0.794521C9.93009 1.2637 9.71732 1.83562 9.56231 2.43836C9.31611 3.40753 9.24012 4.48288 9.22188 5.45205C7.41944 5.57192 5.78722 6.10616 4.43159 6.93151C3.88143 6.46918 3.21882 6.21233 2.58356 6.21918C1.86015 6.22603 1.17322 6.53767 0.662576 7.17808C-0.313112 8.40068 -0.200649 10.4007 0.930054 11.589C0.860145 11.9555 0.808473 12.3322 0.808473 12.7123C0.808473 16.7397 4.92399 20 10 20C15.076 20 19.1915 16.7363 19.1915 12.7123C19.1915 12.3322 19.1399 11.9555 19.0699 11.589C20.2006 10.4007 20.3131 8.40068 19.3374 7.17808C18.8268 6.53767 18.1399 6.22603 17.4164 6.21918C16.7812 6.21233 16.1186 6.46918 15.5684 6.93151C14.2189 6.10959 12.5958 5.57534 10.8024 5.45205C10.8268 4.55822 10.8906 3.63014 11.0699 2.93151C11.1824 2.49315 11.3161 2.17466 11.459 2C11.6018 1.82534 11.7052 1.75342 11.9453 1.75342C12.4651 1.75342 12.5319 1.92123 12.845 2.32877C13.0031 2.53425 13.1854 2.7911 13.4772 3.0411C13.769 3.2911 14.2006 3.50685 14.6687 3.50685V1.75342C14.538 1.75342 14.5137 1.75 14.4256 1.67123C14.3374 1.59247 14.2158 1.41096 14.0365 1.17808C13.6778 0.708904 12.9818 0 11.9453 0ZM17.0031 0.164384C15.7933 0.164384 14.8146 1.26712 14.8146 2.63014C14.8146 3.99315 15.7933 5.09589 17.0031 5.09589C18.2128 5.09589 19.1915 3.99315 19.1915 2.63014C19.1915 1.26712 18.2128 0.164384 17.0031 0.164384ZM17.0031 1.0411C17.7812 1.0411 18.4134 1.75342 18.4134 2.63014C18.4134 3.50685 17.7812 4.21918 17.0031 4.21918C16.225 4.21918 15.5927 3.50685 15.5927 2.63014C15.5927 1.75342 16.225 1.0411 17.0031 1.0411ZM10 6.82192C14.307 6.82192 17.9514 9.52397 17.9514 12.7123C17.9514 15.9041 14.307 18.6027 10 18.6027C5.69299 18.6027 2.0486 15.9041 2.0486 12.7123C2.0486 9.52397 5.69299 6.82192 10 6.82192ZM2.60787 7.61644C2.82368 7.61986 3.0486 7.67466 3.26441 7.78082C2.48325 8.44863 1.86319 9.21575 1.44069 10.0822C1.1489 9.40411 1.22793 8.55822 1.58659 8.10959C1.84799 7.78082 2.20969 7.61301 2.60787 7.61644ZM17.3921 7.61644C17.7903 7.61301 18.152 7.78082 18.4134 8.10959C18.7721 8.55822 18.8511 9.40411 18.5593 10.0822C18.1368 9.21575 17.5167 8.44863 16.7356 7.78082C16.9514 7.67466 17.1763 7.61986 17.3921 7.61644ZM6.88753 9.80822C6.10941 9.80822 5.47719 10.5205 5.47719 11.3973C5.47719 12.274 6.10941 12.9863 6.88753 12.9863C7.66564 12.9863 8.29786 12.274 8.29786 11.3973C8.29786 10.5205 7.66564 9.80822 6.88753 9.80822ZM13.1125 9.80822C12.3344 9.80822 11.7021 10.5205 11.7021 11.3973C11.7021 12.274 12.3344 12.9863 13.1125 12.9863C13.8906 12.9863 14.5228 12.274 14.5228 11.3973C14.5228 10.5205 13.8906 9.80822 13.1125 9.80822ZM6.13372 15.2055C6.62917 16.3596 8.16109 17.4795 10 17.4795C11.8389 17.4795 13.3952 16.3596 13.8906 15.2055C12.9909 15.8596 11.5714 16.3014 10 16.3014C8.42857 16.3014 7.03342 15.8596 6.13372 15.2055Z" fill="#F9FBFD"/>
</g></symbol></svg>